<?xml version="1.0" encoding="utf-8"?>
<!-- Generator: Adobe Illustrator 23.0.2, SVG Export Plug-In . SVG Version: 6.00 Build 0)  -->
<svg version="1.1" id="Layer_1" xmlns="http://www.w3.org/2000/svg" xmlns:xlink="http://www.w3.org/1999/xlink" x="0px" y="0px"
	 viewBox="0 0 179 22" style="enable-background:new 0 0 179 22;" xml:space="preserve">
<style type="text/css">
	.st0{fill:#25282A;}
</style>
<g id="Maropost_x5F_grey_1_">
	<g>
		<g>
			<path class="st0" d="M173.96,21.75c-0.89,0-1.52-0.68-1.52-1.58c0-0.95,0.71-1.58,1.52-1.58c0.81,0,1.51,0.63,1.51,1.58
				C175.48,21.12,174.77,21.75,173.96,21.75 M173.96,18.87c-0.67,0-1.19,0.54-1.19,1.31c0,0.72,0.45,1.3,1.19,1.3
				c0.66,0,1.18-0.53,1.18-1.3C175.14,19.4,174.63,18.87,173.96,18.87 M173.66,21.07h-0.28v-1.75h0.65c0.41,0,0.62,0.15,0.62,0.5
				c0,0.32-0.19,0.45-0.45,0.48l0.48,0.77h-0.32l-0.44-0.75h-0.26V21.07z M173.97,20.08c0.21,0,0.4-0.02,0.4-0.28
				c0-0.21-0.2-0.23-0.37-0.23h-0.34v0.51H173.97z"/>
			<path class="st0" d="M83.45,22c-6.72,0-10.12-3.67-10.12-10.92C73.33,1.92,78.85,0,83.48,0c6.6,0,10.09,3.83,10.09,11.08
				C93.57,18.33,90.17,22,83.45,22 M83.45,2.87c-4.1,0-6.84,1.41-6.84,8.28c0,7.07,3.3,8.04,6.87,8.04c3.53,0,6.81-0.97,6.81-8.04
				C90.29,4.28,87.55,2.87,83.45,2.87"/>
			<path class="st0" d="M126.9,22c-6.72,0-10.13-3.67-10.13-10.92C116.78,1.92,122.3,0,126.94,0c6.6,0,10.09,3.83,10.09,11.08
				C137.03,18.33,133.62,22,126.9,22 M126.9,2.87c-4.11,0-6.84,1.41-6.84,8.28c0,7.07,3.3,8.04,6.87,8.04
				c3.53,0,6.81-0.97,6.81-8.04C133.74,4.28,131.01,2.87,126.9,2.87"/>
			<path class="st0" d="M27.96,21.73h-2.22c-0.36,0-0.81-0.26-0.91-0.99L22.99,4.69l-5.95,16.04c-0.19,0.46-0.46,0.99-0.92,0.99
				h-2.18c-0.56,0-0.84-0.65-1.05-1.12l-0.08-0.18L6.97,4.69L5.13,20.71c-0.08,0.74-0.54,1.01-0.91,1.02H2l2.33-20.7
				C4.47,0.34,4.96,0.28,5.5,0.28h1.97c0.63,0,0.87,0.15,1.07,0.65l6.43,17.01l6.43-17.01c0.21-0.51,0.45-0.65,1.08-0.65h1.97
				c0.54,0,1.03,0.06,1.16,0.73L27.96,21.73z"/>
			<path class="st0" d="M50.21,21.73h-2.26c-0.55,0-1.06-0.06-1.42-0.81l-1.55-4.16h-6.99l1.06-2.7h4.92l-2.12-5.69
				c-0.57-1.55-1.11-3.27-1.38-4.14c-0.27,0.87-0.83,2.59-1.44,4.14l-4.84,12.44c-0.34,0.84-0.88,0.91-1.45,0.91h-2.17L38.8,0.8
				c0.21-0.4,0.44-0.52,0.98-0.53h1.48c0.77,0,0.88,0.27,1.13,0.85l0.06,0.14L50.21,21.73z"/>
			<path class="st0" d="M60.05,10.9l1.98,0c3.29,0,4.76-0.56,4.76-3.86c0-2.95-1.16-3.89-4.76-3.89h-5.11
				c-0.25,0-0.59,0.27-0.59,0.55v16.9c-0.05,0.48-0.45,1.13-1.18,1.13h-2.01V2.18c0-1.19,0.61-1.9,1.63-1.9h7.66
				c5.07,0,7.64,2.22,7.64,6.59c0,3.7-1.71,5.88-5.21,6.66c-0.65,0.11-1.15,0.11-1.81,0.15l7.33,7.18c0.2,0.23,0.27,0.44,0.19,0.61
				c-0.04,0.1-0.17,0.26-0.54,0.26h-2.25c-0.38,0-0.61-0.14-0.78-0.27l-7.95-7.78c-0.54-0.56-0.95-1.27-0.45-2.02
				C58.98,11.07,59.54,10.9,60.05,10.9"/>
			<path class="st0" d="M99.26,21.73h-1.99V2.11c0-1.08,0.64-1.83,1.56-1.83h7.32c5.51,0,8.31,2.51,8.31,7.45
				c0,4.99-2.73,7.42-8.35,7.42h-3.45v-2.87h3.08c4.11,0,5.43-1.06,5.43-4.37c0-3.59-1.32-4.75-5.43-4.75h-4.67
				c-0.31,0-0.63,0.25-0.63,0.61l-0.01,16.77C100.44,20.96,100.05,21.73,99.26,21.73"/>
			<path class="st0" d="M149.57,21.73h-9.99l0.05-0.22c0.02-0.11,0.57-2.65,2.3-2.65h7.78c2.5,0,3.71-0.88,3.71-2.68
				c0-0.58-0.36-1.43-1.38-1.92c-0.42-0.2-1.62-0.71-3.02-1.3c-1.97-0.83-4.43-1.86-5.63-2.44l-0.47-0.22
				c-1.82-0.85-3.53-1.66-3.53-4.38c0-3.48,2.67-5.65,6.96-5.65h9.48l-0.07,0.24c-0.03,0.11-0.82,2.63-2.81,2.63h-6.86
				c-1.89,0-3.8,0.79-3.8,2.54c0,1.28,1.07,1.74,2.69,2.44c0.23,0.1,0.47,0.2,0.72,0.32c0.54,0.25,1.62,0.71,2.82,1.23
				c2.22,0.96,4.73,2.05,5.42,2.41c1.17,0.6,2.51,1.58,2.51,3.92C156.43,19.59,153.87,21.73,149.57,21.73"/>
			<path class="st0" d="M167.41,21.73h-1.99V3.15h-8.18l0.07-0.24c0.03-0.11,0.76-2.64,2.83-2.64H177l-0.02,0.21
				c0,0.03-0.33,2.67-2.55,2.67h-5.83l-0.01,17.39C168.6,20.96,168.2,21.73,167.41,21.73"/>
		</g>
	</g>
</g>
</svg>
